#!OML:ASF X:\für Bonn\!DataBase\2005_08_12_Daniel\c3d\Daniel.ASF
:FULLY-SPECIFIED
:DEGREES
122
root 0.303232 9.83224 -2.60982 158.217 -9.84515 -182.437
lowerback 76.7279 -9.73395 23.2914
upperback 11.2813 -4.01048 0.499931
thorax -6.21731 -5.84285 -5.69544
lowerneck 6.15565 -7.32029 -7.96596
upperneck 10.2251 -11.141 1.74166
head 2.83134 -6.02053 1.79887
rclavicle -1.59028e-014 1.59028e-014
rhumerus 19.1417 -19.3242 -69.3529
rradius 12.2224
rwrist 39.0864
rhand -29.2623 7.31867
rfingers 7.12502
rthumb -2.60504 -22.6452
lclavicle -1.59028e-014 1.59028e-014
lhumerus -31.3127 -17.2861 93.5644
lradius 106.746
lwrist -7.81265
lhand -31.5642 -6.77149
lfingers 7.12502
lthumb -4.82798 23.1535
rfemur -55.9831 -44.2417 -9.31351
rtibia 132.952
rfoot -17.8422 45.7706
rtoes 3.32981
lfemur -64.5464 28.6129 -17.7147
ltibia 131.919
lfoot -33.9137 -27.9938
ltoes 4.61534
123
root 0.305913 9.73124 -2.64253 157.836 -10.0189 -182.45
lowerback 76.9372 -9.81911 23.3469
upperback 11.2807 -4.05767 0.557762
thorax -6.17989 -5.89319 -5.61167
lowerneck 6.28077 -7.36755 -7.84319
upperneck 10.258 -11.2139 1.63029
head 2.80791 -6.05873 1.74507
rclavicle -4.77083e-015 4.13472e-014
rhumerus 18.8113 -19.3469 -69.258
rradius 12.31
rwrist 38.7075
rhand -29.6607 7.44854
rfingers 7.12502
rthumb -2.98974 -22.5103
lclavicle -4.77083e-015 4.13472e-014
lhumerus -31.5423 -17.2538 93.5715
lradius 107.206
lwrist -7.44036
lhand -31.9562 -7.12606
lfingers 7.12502
lthumb -5.20648 22.79
rfemur -55.3578 -45.733 -10.901
rtibia 133.881
rfoot -18.3936 46.598
rtoes 2.8392
lfemur -64.7052 29.6557 -17.3659
ltibia 132.862
lfoot -34.0859 -28.3499
ltoes 4.47217
124
root 0.308992 9.63529 -2.67396 157.449 -10.1806 -182.475
lowerback 77.1854 -9.89208 23.3856
upperback 11.2746 -4.09793 0.610134
thorax -6.14654 -5.94237 -5.52942
lowerneck 6.19479 -7.41967 -7.7621
upperneck 10.4064 -11.282 1.56697
head 2.86742 -6.0945 1.70159
rclavicle -7.63333e-014 -4.92986e-014
rhumerus 18.454 -19.2271 -69.128
rradius 12.4216
rwrist 38.1371
rhand -30.105 7.54899
rfingers 7.12502
rthumb -3.41888 -22.4033
lclavicle -7.63333e-014 -4.92986e-014
lhumerus -31.7211 -17.2397 93.5884
lradius 107.641
lwrist -7.08667
lhand -32.3143 -7.4779
lfingers 7.12502
lthumb -5.55222 22.4294
rfemur -54.6478 -47.0836 -12.562
rtibia 134.772
rfoot -18.931 47.402
rtoes 2.45842
lfemur -64.8056 30.6891 -17.0206
ltibia 133.751
lfoot -34.2737 -28.6599
ltoes 4.39125
125
root 0.313693 9.54311 -2.7053 157.084 -10.3411 -182.488
lowerback 77.4352 -9.93561 23.4022
upperback 11.2531 -4.10883 0.678923
thorax -6.13065 -5.98057 -5.43126
lowerneck 6.20543 -7.47879 -7.6017
upperneck 10.5044 -11.361 1.47777
head 2.88557 -6.13312 1.64197
rclavicle 0 1.59028e-015
rhumerus 18.0737 -19.0703 -68.9772
rradius 12.5417
rwrist 37.6021
rhand -30.5294 7.63428
rfingers 7.12502
rthumb -3.82868 -22.3111
lclavicle 0 1.59028e-015
lhumerus -31.9149 -17.2869 93.6507
lradius 108.059
lwrist -6.72873
lhand -32.6567 -7.81974
lfingers 7.12502
lthumb -5.8828 22.0786
rfemur -53.8449 -48.4028 -14.2822
rtibia 135.622
rfoot -19.4837 48.1841
rtoes 2.14015
lfemur -64.8954 31.7538 -16.6339
ltibia 134.614
lfoot -34.4894 -28.9566
ltoes 4.24821
126
root 0.318231 9.45491 -2.73514 156.733 -10.4926 -182.504
lowerback 77.6748 -9.97268 23.4188
upperback 11.244 -4.12129 0.743921
thorax -6.10176 -6.01834 -5.33928
lowerneck 6.23511 -7.54023 -7.41729
upperneck 10.5601 -11.4381 1.35765
head 2.88156 -6.16947 1.57054
rclavicle 1.01778e-013 9.70069e-014
rhumerus 17.6759 -18.774 -68.7801
rradius 12.6701
rwrist 36.9214
rhand -30.9943 7.7697
rfingers 7.12502
rthumb -4.27761 -22.1671
lclavicle 1.01778e-013 9.70069e-014
lhumerus -32.0567 -17.3466 93.7558
lradius 108.458
lwrist -6.40778
lhand -32.9668 -8.03011
lfingers 7.12502
lthumb -6.18214 21.8597
rfemur -53.0194 -49.6217 -16.0138
rtibia 136.435
rfoot -19.9825 48.9204
rtoes 1.82051
lfemur -64.9489 32.848 -16.2058
ltibia 135.441
lfoot -34.7069 -29.3098
ltoes 4.10483
127
root 0.322939 9.37137 -2.76467 156.383 -10.6536 -182.512
lowerback 77.929 -10.0276 23.4332
upperback 11.2173 -4.14232 0.795407
thorax -6.09343 -6.05806 -5.25571
lowerneck 6.33692 -7.59548 -7.22972
upperneck 10.5805 -11.5133 1.28193
head 2.85552 -6.20331 1.51764
rclavicle -5.88403e-014 -3.97569e-014
rhumerus 17.3136 -18.6547 -68.7002
rradius 12.7815
rwrist 36.4716
rhand -31.4028 7.94617
rfingers 7.12502
rthumb -4.6721 -21.9823
lclavicle -5.88403e-014 -3.97569e-014
lhumerus -32.2083 -17.3983 93.844
lradius 108.857
lwrist -6.16512
lhand -33.2114 -8.18841
lfingers 7.12502
lthumb -6.41834 21.6943
rfemur -52.0771 -50.8021 -17.8174
rtibia 137.21
rfoot -20.6228 49.5623
rtoes 1.47511
lfemur -64.9641 33.8959 -15.7825
ltibia 136.213
lfoot -34.9261 -29.6273
ltoes 3.956
128
root 0.328267 9.29105 -2.79331 156.084 -10.7856 -182.513
lowerback 78.1687 -10.0641 23.4479
upperback 11.1771 -4.12902 0.831618
thorax -6.10158 -6.07631 -5.20441
lowerneck 6.48847 -7.66551 -6.95555
upperneck 10.577 -11.6032 1.14522
head 2.80249 -6.24266 1.43391
rclavicle 6.83819e-014 4.6118e-014
rhumerus 16.9253 -18.5507 -68.6079
rradius 12.8645
rwrist 36.151
rhand -31.8616 8.20421
rfingers 7.12502
rthumb -5.11512 -21.7141
lclavicle 6.83819e-014 4.6118e-014
lhumerus -32.3934 -17.483 93.9595
lradius 109.274
lwrist -6.01554
lhand -33.3566 -8.32856
lfingers 7.12502
lthumb -6.5585 21.5499
rfemur -51.0538 -52.0315 -19.6967
rtibia 137.947
rfoot -21.1828 50.2621
rtoes 1.24334
lfemur -65.0066 35.0021 -15.3144
ltibia 136.98
lfoot -35.2127 -29.9493
ltoes 3.76475
129
root 0.333502 9.21392 -2.8207 155.771 -10.9328 -182.529
lowerback 78.4322 -10.0976 23.4474
upperback 11.141 -4.12766 0.886752
thorax -6.10325 -6.10608 -5.11976
lowerneck 6.57179 -7.72719 -6.74636
upperneck 10.5877 -11.6801 1.03918
head 2.77245 -6.27656 1.36784
rclavicle -1.11319e-013 -3.49861e-014
rhumerus 16.5604 -18.3612 -68.4638
rradius 12.938
rwrist 35.7698
rhand -32.3239 8.48063
rfingers 7.12502
rthumb -5.56143 -21.4264
lclavicle -1.11319e-013 -3.49861e-014
lhumerus -32.5561 -17.5431 94.0999
lradius 109.724
lwrist -5.98204
lhand -33.4168 -8.34973
lfingers 7.12502
lthumb -6.61659 21.5269
rfemur -49.8452 -53.2555 -21.8013
rtibia 138.667
rfoot -21.8173 50.9776
rtoes 1.06602
lfemur -64.9734 36.0502 -14.8631
ltibia 137.699
lfoot -35.5133 -30.1994
ltoes 3.54845
130
root 0.338242 9.14086 -2.84742 155.488 -11.0587 -182.53
lowerback 78.6658 -10.1202 23.4592
upperback 11.1082 -4.10503 0.929208
thorax -6.10225 -6.12079 -5.06555
lowerneck 6.64158 -7.8061 -6.49025
upperneck 10.636 -11.7796 0.946973
head 2.75625 -6.31989 1.29684
rclavicle 8.90555e-014 7.15625e-014
rhumerus 16.1631 -18.0682 -68.2486
rradius 13.0194
rwrist 35.3046
rhand -32.7387 8.8682
rfingers 7.12502
rthumb -5.96197 -21.0279
lclavicle 8.90555e-014 7.15625e-014
lhumerus -32.7191 -17.6289 94.2603
lradius 110.133
lwrist -6.01521
lhand -33.4361 -8.35581
lfingers 7.12502
lthumb -6.63521 21.5202
rfemur -48.5715 -54.4218 -23.9124
rtibia 139.339
rfoot -22.388 51.6746
rtoes 1.02779
lfemur -64.9265 37.1427 -14.3491
ltibia 138.389
lfoot -35.8296 -30.5213
ltoes 3.46645
131
root 0.343702 9.07179 -2.87351 155.232 -11.1785 -182.518
lowerback 78.8915 -10.1488 23.4722
upperback 11.0692 -4.08451 0.965755
thorax -6.10978 -6.13434 -5.01731
lowerneck 6.69189 -7.87304 -6.26803
upperneck 10.6772 -11.8618 0.860705
head 2.74286 -6.35536 1.23317
rclavicle 7.95139e-014 2.38542e-014
rhumerus 15.6949 -17.5462 -67.9326
rradius 13.175
rwrist 34.7607
rhand -33.131 9.18334
rfingers 7.12502
rthumb -6.34066 -20.7018
lclavicle 7.95139e-014 2.38542e-014
lhumerus -32.9027 -17.703 94.4149
lradius 110.577
lwrist -6.07882
lhand -33.4234 -8.30969
lfingers 7.12502
lthumb -6.62295 21.5667
rfemur -47.2519 -55.531 -26.0356
rtibia 139.986
rfoot -23.0893 52.2939
rtoes 0.780322
lfemur -64.8988 38.1762 -13.8549
ltibia 139.043
lfoot -36.1905 -30.7592
ltoes 3.18655
132
root 0.34822 9.00709 -2.89839 155.004 -11.3126 -182.539
lowerback 79.1085 -10.1716 23.4618
upperback 11.0208 -4.06732 1.00547
thorax -6.1336 -6.14819 -4.95548
lowerneck 6.68881 -7.93037 -6.13742
upperneck 10.7555 -11.9371 0.816088
head 2.7607 -6.3904 1.19417
rclavicle 3.49861e-014 2.70347e-014
rhumerus 15.3086 -17.3254 -67.7277
rradius 13.2418
rwrist 34.6149
rhand -33.5414 9.62628
rfingers 7.12502
rthumb -6.73684 -20.2466
lclavicle 3.49861e-014 2.70347e-014
lhumerus -33.1208 -17.7793 94.6036
lradius 111.017
lwrist -6.24294
lhand -33.4241 -8.13186
lfingers 7.12502
lthumb -6.6236 21.7446
rfemur -45.9549 -56.5505 -28.1888
rtibia 140.609
rfoot -23.843 52.8568
rtoes 0.52173
lfemur -64.8595 39.1094 -13.4434
ltibia 139.652
lfoot -36.5155 -30.9198
ltoes 2.98071
133
root 0.352682 8.94739 -2.92215 154.791 -11.4168 -182.525
lowerback 79.323 -10.2067 23.479
upperback 10.9715 -4.04199 1.02528
thorax -6.15492 -6.1543 -4.92972
lowerneck 6.59803 -8.00043 -5.96418
upperneck 10.9039 -12.0233 0.741503
head 2.81276 -6.43033 1.13229
rclavicle 5.725e-014 1.43125e-014
rhumerus 14.8548 -16.8972 -67.451
rradius 13.3777
rwrist 34.3177
rhand -33.9441 10.0002
rfingers 7.12502
rthumb -7.12556 -19.8598
lclavicle 5.725e-014 1.43125e-014
lhumerus -33.3155 -17.8782 94.7435
lradius 111.442
lwrist -6.42995
lhand -33.3757 -7.92651
lfingers 7.12502
lthumb -6.57687 21.9514
rfemur -44.5938 -57.4825 -30.2796
rtibia 141.173
rfoot -24.614 53.3578
rtoes 0.177077
lfemur -64.7922 40.0683 -12.9412
ltibia 140.228
lfoot -36.8571 -31.1436
ltoes 2.79723
134
root 0.356483 8.8902 -2.94396 154.609 -11.5267 -182.53
lowerback 79.502 -10.2405 23.4975
upperback 10.9344 -4.02146 1.03941
thorax -6.16717 -6.15797 -4.91273
lowerneck 6.49069 -8.06596 -5.82294
upperneck 11.0577 -12.1055 0.691445
head 2.87357 -6.46857 1.08237
rclavicle -1.43125e-013 -1.145e-013
rhumerus 14.4514 -16.6905 -67.2464
rradius 13.4523
rwrist 34.2723
rhand -34.3408 10.4218
rfingers 7.12502
rthumb -7.50855 -19.4249
lclavicle -1.43125e-013 -1.145e-013
lhumerus -33.5183 -17.99 94.9053
lradius 111.855
lwrist -6.63579
lhand -33.3121 -7.70789
lfingers 7.12502
lthumb -6.51554 22.1719
rfemur -43.1365 -58.3919 -32.4856
rtibia 141.712
rfoot -25.3605 53.8531
rtoes 0.117484
lfemur -64.8082 40.8718 -12.5488
ltibia 140.777
lfoot -37.1091 -31.3306
ltoes 2.62913
135
root 0.359745 8.83924 -2.96503 154.462 -11.6263 -182.531
lowerback 79.6539 -10.2827 23.5338
upperback 10.8966 -3.99356 1.03591
thorax -6.18171 -6.15142 -4.927
lowerneck 6.50291 -8.13245 -5.7089
upperneck 11.1403 -12.1993 0.709922
head 2.89679 -6.51103 1.06638
rclavicle 4.13472e-014 -3.97569e-014
rhumerus 14.0541 -16.5665 -67.0756
rradius 13.5258
rwrist 34.3696
rhand -34.7601 10.8532
rfingers 7.12502
rthumb -7.91322 -18.9787
lclavicle 4.13472e-014 -3.97569e-014
lhumerus -33.716 -18.135 95.0609
lradius 112.244
lwrist -6.82153
lhand -33.2706 -7.43003
lfingers 7.12502
lthumb -6.47543 22.451
rfemur -41.5941 -59.2453 -34.7549
rtibia 142.212
rfoot -26.1908 54.3699
rtoes -0.0831995
lfemur -64.8181 41.64 -12.1873
ltibia 141.267
lfoot -37.3399 -31.4838
ltoes 2.57922
136
root 0.362868 8.79344 -2.98444 154.327 -11.7186 -182.541
lowerback 79.8346 -10.3109 23.5254
upperback 10.85 -3.98161 1.03022
thorax -6.21206 -6.15499 -4.92034
lowerneck 6.59113 -8.17765 -5.55039
upperneck 11.1563 -12.2605 0.701335
head 2.87708 -6.5358 1.04131
rclavicle 5.08889e-014 -1.74931e-014
rhumerus 13.7301 -16.5625 -67.0131
rradius 13.5535
rwrist 34.6692
rhand -35.1787 11.2415
rfingers 7.12502
rthumb -8.31721 -18.5748
lclavicle 5.08889e-014 -1.74931e-014
lhumerus -33.9367 -18.2219 95.2157
lradius 112.627
lwrist -7.06158
lhand -33.2636 -7.07234
lfingers 7.12502
lthumb -6.46871 22.8089
rfemur -40.0324 -60.0101 -36.9919
rtibia 142.673
rfoot -27.0182 54.7958
rtoes -0.302295
lfemur -64.783 42.3263 -11.8505
ltibia 141.697
lfoot -37.4938 -31.6085
ltoes 2.60086
